<?xml version="1.0" standalone="no"?>
<!DOCTYPE svg PUBLIC "-//W3C//DTD SVG 20010904//EN"
 "http://www.w3.org/TR/2001/REC-SVG-20010904/DTD/svg10.dtd">
<svg version="1.0" xmlns="http://www.w3.org/2000/svg"
 width="1920.000000pt" height="1080.000000pt" viewBox="0 0 1920.000000 1080.000000"
 preserveAspectRatio="xMidYMid meet">

<g transform="translate(0.000000,1080.000000) scale(0.100000,-0.100000)"
fill="#000000" stroke="none">
<path d="M9443 8183 c15 -2 37 -2 50 0 12 2 0 4 -28 4 -27 0 -38 -2 -22 -4z"/>
<path d="M9235 8165 c-22 -7 -33 -13 -25 -14 8 0 35 6 60 13 25 8 36 15 25 15
-11 0 -38 -6 -60 -14z"/>
<path d="M9720 8140 c8 -5 20 -10 25 -10 6 0 3 5 -5 10 -8 5 -19 10 -25 10 -5
0 -3 -5 5 -10z"/>
<path d="M9120 8125 c-14 -8 -20 -14 -15 -14 6 0 21 6 35 14 14 8 21 14 15 14
-5 0 -21 -6 -35 -14z"/>
<path d="M9780 8115 c0 -8 82 -47 87 -41 3 2 -13 14 -36 25 -41 22 -51 25 -51
16z"/>
<path d="M9013 8075 c-128 -63 -273 -238 -328 -396 -9 -23 -13 -44 -11 -46 2
-2 11 18 20 45 45 136 204 321 334 390 34 18 62 35 62 38 0 6 0 6 -77 -31z"/>
<path d="M9955 8010 c10 -11 20 -20 23 -20 3 0 -3 9 -13 20 -10 11 -20 20 -23
20 -3 0 3 -9 13 -20z"/>
<path d="M8656 7588 c-3 -13 -5 -32 -5 -43 1 -11 5 -2 10 19 10 42 6 62 -5 24z"/>
<path d="M8631 7414 c0 -11 3 -14 6 -6 3 7 2 16 -1 19 -3 4 -6 -2 -5 -13z"/>
<path d="M10243 7315 c0 -44 2 -61 4 -37 2 23 2 59 0 80 -2 20 -4 1 -4 -43z"/>
<path d="M9506 7298 c-10 -8 -17 -23 -14 -33 5 -30 46 -45 120 -45 95 0 212
-18 291 -44 37 -12 67 -19 67 -16 0 15 -44 63 -79 84 -66 41 -131 58 -251 63
-90 4 -119 2 -134 -9z"/>
<path d="M8980 7276 c-64 -14 -139 -53 -194 -102 -22 -19 -37 -34 -34 -34 3 0
31 9 64 21 36 12 111 25 194 32 74 7 141 16 148 20 17 11 15 42 -4 61 -19 19
-93 20 -174 2z"/>
<path d="M4890 7119 c0 -5 6 -9 14 -9 7 0 26 -10 42 -22 l29 -22 -23 26 c-24
27 -62 43 -62 27z"/>
<path d="M10268 7083 c7 -3 16 -2 19 1 4 3 -2 6 -13 5 -11 0 -14 -3 -6 -6z"/>
<path d="M10329 7062 c63 -32 76 -61 76 -172 0 -61 4 -95 9 -90 16 16 10 161
-8 203 -16 37 -66 77 -96 77 -8 0 0 -8 19 -18z"/>
<path d="M4986 7045 c4 -10 0 -15 -15 -15 -19 0 -14 -12 45 -97 38 -54 84
-118 103 -142 20 -24 64 -91 97 -149 35 -59 64 -99 68 -93 4 6 2 11 -3 11 -6
0 -11 9 -11 20 0 11 -4 20 -10 20 -5 0 -10 9 -10 20 0 11 -5 20 -12 20 -6 0
-9 3 -5 6 11 12 -38 90 -89 141 -38 38 -52 58 -49 74 3 15 0 19 -10 15 -9 -3
-12 0 -9 9 3 8 -4 26 -15 41 -12 15 -21 32 -21 40 0 7 -6 14 -12 17 -7 2 -11
7 -8 10 9 9 162 -133 285 -264 116 -123 275 -363 329 -495 13 -32 43 -99 66
-149 73 -156 122 -310 160 -500 11 -54 58 -165 60 -140 0 6 -20 91 -45 190
-60 241 -132 430 -261 686 -79 156 -125 227 -228 353 -74 91 -378 386 -397
386 -5 0 -6 -7 -3 -15z"/>
<path d="M8636 7051 c-4 -6 -2 -19 3 -30 6 -10 15 -90 21 -178 5 -87 14 -173
19 -190 5 -18 6 -33 1 -33 -12 0 24 -153 59 -250 17 -47 67 -150 111 -230 44
-80 79 -153 76 -162 -2 -10 0 -18 5 -18 5 0 13 -8 17 -18 10 -26 77 -113 143
-186 31 -35 60 -73 64 -85 4 -13 9 -20 12 -18 2 3 -1 15 -7 27 l-11 21 39 -20
c76 -39 227 -51 337 -27 78 17 125 39 207 101 73 55 288 261 288 276 0 19 107
8 200 -22 22 -6 20 -8 -15 -9 l-40 -2 48 -8 c27 -5 57 -16 68 -26 18 -16 19
-16 19 1 0 22 13 20 190 -34 122 -36 275 -95 553 -210 54 -23 101 -41 103 -41
2 0 4 7 4 15 0 9 6 18 14 21 17 7 9 54 -10 54 -8 0 -14 5 -14 11 0 5 -5 7 -10
4 -6 -4 -16 -2 -23 3 -7 5 -25 12 -42 16 -20 4 -25 3 -16 -3 7 -5 10 -14 7
-20 -5 -7 3 -11 21 -11 30 0 82 -34 71 -46 -4 -4 -14 -1 -23 6 -8 7 -25 10
-39 6 -15 -4 -26 -1 -29 7 -2 6 -31 22 -63 35 -33 13 -67 29 -77 37 -21 15
-28 72 -13 93 7 9 6 16 -3 22 -9 5 -10 10 -2 14 19 12 12 24 -20 31 -28 6 -29
8 -12 21 16 12 16 13 1 14 -9 0 -19 6 -21 13 -3 7 -6 5 -6 -5 -1 -10 -15 -25
-33 -34 -30 -16 -31 -17 -13 -30 10 -8 22 -14 27 -14 4 0 8 -5 8 -10 0 -11
-52 -2 -60 11 -3 4 -14 7 -25 6 -11 -1 -20 4 -21 13 -3 35 -5 39 -26 42 -15 2
-22 9 -20 19 3 24 -24 42 -55 36 -14 -3 -43 1 -64 8 -39 14 -83 10 -73 -7 4
-6 -2 -8 -12 -6 -10 2 -20 12 -22 23 -7 45 -12 49 -28 27 -12 -18 -18 -19 -44
-10 -17 5 -30 14 -30 19 0 5 -10 9 -22 9 -18 0 -20 2 -8 10 21 13 7 22 -45 26
-38 2 -46 0 -41 -11 4 -11 -2 -15 -18 -15 -14 0 -26 6 -29 13 -2 6 -8 8 -13 4
-5 -4 -2 -12 6 -17 11 -7 11 -11 1 -24 -19 -23 -30 -20 -41 10 -12 32 2 54 34
54 15 0 17 3 7 9 -11 7 -11 17 -1 57 6 27 16 76 21 108 5 33 15 64 22 68 9 6
9 8 0 8 -10 0 -13 25 -13 89 0 50 -4 93 -10 96 -5 3 -11 30 -11 58 -2 74 -12
111 -30 115 -14 2 -17 -15 -22 -118 -7 -131 -25 -191 -75 -243 -37 -39 -92
-71 -102 -61 -4 5 0 41 10 79 22 83 25 144 8 149 -7 3 -49 6 -93 9 -61 3 -72
2 -46 -5 18 -5 31 -11 29 -13 -9 -9 -280 -68 -392 -85 -80 -12 -128 -15 -144
-9 -13 5 -79 12 -146 15 -155 6 -199 12 -220 27 -16 12 -16 15 4 40 l21 27
-21 0 c-11 0 -39 -9 -60 -20 -35 -18 -40 -25 -40 -54 0 -26 7 -40 27 -56 25
-19 28 -20 39 -5 11 15 18 13 72 -14 166 -84 449 -79 735 12 44 14 47 14 35
-1 -39 -47 -149 -102 -267 -132 -69 -18 -42 -21 38 -4 97 20 151 49 241 129
144 128 159 126 66 -8 -107 -154 -159 -188 -347 -231 -22 -5 -25 -10 -21 -40
3 -28 -1 -37 -22 -51 -33 -22 -94 -30 -127 -17 -32 13 -41 42 -23 78 18 34 18
34 -8 34 -40 0 -121 29 -145 52 -29 27 -29 38 0 39 21 0 21 1 -3 10 -14 6 -46
31 -72 56 -75 73 -75 33 -1 -50 19 -22 32 -41 29 -44 -7 -8 -92 53 -115 84
l-22 28 21 -42 c24 -51 24 -53 5 -53 -51 0 -188 122 -254 225 -48 75 -60 132
-76 339 -14 177 -23 224 -39 197z m1576 -988 c-6 -3 -10 -9 -6 -14 3 -5 -4 -9
-15 -9 -23 0 -37 16 -20 22 17 6 56 7 41 1z m354 -28 c-8 -8 -19 -15 -25 -15
-6 0 -11 7 -11 15 0 9 10 15 26 15 23 0 24 -2 10 -15z m294 -79 c0 -8 3 -21 6
-30 4 -11 1 -16 -10 -16 -9 0 -16 3 -16 8 0 4 -3 17 -6 30 -5 16 -2 22 10 22
9 0 16 -6 16 -14z m-193 -43 c-8 -7 -37 9 -31 19 3 5 12 4 20 -3 8 -6 13 -14
11 -16z m218 -73 c3 -6 -1 -7 -9 -4 -18 7 -21 14 -7 14 6 0 13 -4 16 -10z"/>
<path d="M8878 6981 c-31 -9 -63 -22 -70 -30 -11 -11 -9 -13 12 -7 82 22 277
16 345 -10 8 -4 15 -2 15 3 0 17 -72 44 -144 53 -87 11 -88 11 -158 -9z"/>
<path d="M9621 6978 c-34 -10 -60 -22 -57 -25 3 -3 42 0 87 7 76 12 170 10
264 -6 62 -11 34 6 -46 27 -90 24 -165 23 -248 -3z"/>
<path d="M8556 6975 c-9 -26 -7 -32 5 -12 6 10 9 21 6 23 -2 3 -7 -2 -11 -11z"/>
<path d="M9302 6918 c-3 -83 -23 -146 -63 -205 -21 -32 -39 -66 -39 -77 0 -44
66 -116 107 -116 12 0 5 8 -19 25 -67 46 -74 85 -29 173 41 81 53 129 49 192
l-4 55 -2 -47z"/>
<path d="M8536 6899 c-3 -17 -5 -48 -5 -68 1 -24 4 -15 10 29 9 68 6 92 -5 39z"/>
<path d="M8595 6880 c-4 -17 -5 -34 -2 -36 2 -3 7 10 11 27 3 18 4 34 2 36 -2
3 -7 -10 -11 -27z"/>
<path d="M8592 6795 c0 -16 2 -22 5 -12 2 9 2 23 0 30 -3 6 -5 -1 -5 -18z"/>
<path d="M10345 6693 l-29 -38 32 23 c17 13 32 30 32 38 0 20 -1 19 -35 -23z"/>
<path d="M5290 6516 c0 -16 18 -31 27 -22 3 3 -2 12 -11 21 -14 14 -16 14 -16
1z"/>
<path d="M5316 6453 c11 -46 37 -98 42 -83 3 8 14 22 25 31 14 11 17 18 9 23
-8 4 -12 0 -12 -11 0 -14 -2 -15 -9 -4 -5 7 -14 10 -20 7 -6 -4 -11 -4 -10 1
4 15 -13 63 -22 63 -5 0 -6 -12 -3 -27z"/>
<path d="M7035 6440 c-82 -8 -269 -45 -287 -56 -6 -4 -5 -10 3 -15 8 -5 22 -3
34 5 25 16 115 18 116 2 0 -6 4 -2 9 9 5 11 9 14 9 7 1 -11 13 -12 54 -6 28 4
62 7 75 6 13 -1 22 4 22 13 0 10 11 16 33 17 55 3 150 6 191 7 71 2 33 9 -74
14 -58 3 -141 1 -185 -3z"/>
<path d="M7529 6414 c73 -15 130 -38 184 -76 15 -11 27 -17 27 -14 0 4 -25 23
-57 42 -61 40 -137 64 -193 63 -24 -1 -13 -5 39 -15z"/>
<path d="M10351 6425 c4 -3 150 -8 325 -10 328 -5 416 -8 709 -25 94 -6 215
-13 270 -16 55 -3 159 -13 230 -21 72 -9 156 -18 187 -20 48 -4 60 -9 74 -31
10 -15 25 -32 33 -39 17 -13 17 -13 -57 -15 -25 -1 -30 -4 -22 -14 19 -21 -9
-28 -120 -29 -112 0 -150 -12 -150 -45 0 -13 -7 -20 -19 -20 -11 0 -22 -6 -24
-12 -4 -10 -8 -9 -16 2 -9 12 -11 11 -11 -7 0 -35 -11 -53 -31 -53 -14 0 -19
-7 -19 -25 0 -14 -6 -28 -14 -31 -16 -6 -29 -44 -15 -44 15 0 10 -42 -8 -62
-9 -11 -11 -18 -5 -18 7 0 12 -9 12 -21 0 -15 -5 -19 -15 -15 -10 4 -6 -7 10
-29 21 -27 24 -37 16 -54 -8 -14 -8 -22 0 -27 6 -3 9 -17 6 -30 -3 -18 0 -24
14 -24 14 0 19 7 19 30 0 28 2 30 20 20 13 -7 20 -21 20 -39 0 -16 7 -31 15
-35 24 -9 17 -26 -10 -26 -18 0 -25 -5 -25 -20 0 -11 -3 -19 -7 -19 -43 7 -53
-15 -31 -68 6 -15 10 -34 9 -40 -1 -7 6 -13 15 -13 12 0 15 -6 11 -26 -2 -14
0 -28 7 -30 6 -2 11 -22 11 -44 0 -28 7 -45 23 -60 14 -13 22 -33 22 -53 0
-22 7 -36 21 -45 13 -8 18 -19 15 -30 -5 -13 2 -20 26 -27 17 -6 33 -17 36
-25 3 -12 2 -12 -6 -2 -7 11 -10 9 -15 -7 -3 -14 4 -26 24 -41 23 -19 26 -25
16 -40 -8 -14 -8 -25 0 -42 18 -36 22 -90 7 -84 -20 8 -37 -19 -22 -36 13 -13
22 -38 14 -38 -2 0 -27 42 -57 93 -63 110 -205 320 -267 397 -118 147 -220
238 -322 288 -41 20 -77 40 -78 45 -2 4 -8 4 -13 1 -6 -3 21 -26 58 -51 243
-162 398 -348 605 -723 111 -202 132 -244 289 -565 72 -148 134 -264 136 -257
3 7 -1 23 -9 35 -37 57 -47 104 -38 164 23 149 45 667 45 1076 0 147 2 267 5
267 3 0 31 -56 63 -124 51 -110 57 -128 52 -167 l-6 -44 25 28 c42 46 43 72 5
125 -96 135 -140 208 -169 283 -17 46 -48 109 -68 139 -20 30 -40 60 -44 66
-9 14 70 -15 146 -53 61 -30 195 -117 250 -162 21 -17 43 -31 49 -31 5 0 27
17 48 39 37 36 39 42 39 100 l0 61 54 0 c78 0 103 -13 126 -62 10 -24 31 -54
46 -68 25 -23 48 -67 99 -187 20 -48 41 -55 51 -18 8 33 -1 94 -27 171 -13 42
-33 74 -64 107 -48 49 -57 77 -26 77 14 0 28 -17 47 -57 15 -32 38 -70 50 -85
19 -24 54 -112 67 -173 4 -19 5 -19 6 1 0 12 8 25 17 28 12 5 14 17 10 63 l-6
58 13 -45 c15 -54 52 -118 81 -142 29 -24 36 -22 36 10 0 41 -66 366 -80 391
-10 20 -8 21 32 22 24 1 59 3 78 5 19 2 57 -3 85 -13 27 -9 57 -17 65 -18 34
-3 126 -28 138 -38 16 -13 15 -8 -8 41 -35 72 -18 282 34 406 17 40 43 57 57
35 7 -11 9 -11 9 4 0 26 -36 21 -77 -10 -50 -38 -172 -180 -245 -283 -33 -47
-64 -89 -68 -93 -4 -5 -54 -13 -111 -17 -59 -5 -139 -19 -184 -33 -180 -56
-225 -62 -337 -48 -106 12 -328 50 -339 57 -3 2 -9 57 -12 124 -8 168 -38 232
-110 234 -17 1 -37 6 -44 12 -7 6 -43 15 -80 19 -37 5 -79 10 -93 11 -44 5
-199 18 -415 34 -296 22 -1210 41 -1194 25z m1479 -795 c0 -11 -2 -20 -4 -20
-2 0 -6 9 -9 20 -3 11 -1 20 4 20 5 0 9 -9 9 -20z m-80 -51 c10 -7 11 -12 4
-15 -6 -3 -9 -16 -6 -31 3 -18 1 -24 -7 -19 -6 4 -11 18 -11 32 0 13 -5 24
-11 24 -5 0 -7 5 -4 10 8 13 16 12 35 -1z m97 -60 c-21 -11 -77 -19 -77 -10 0
15 11 18 50 17 22 0 34 -3 27 -7z m-12 -39 c-3 -5 -11 -10 -16 -10 -6 0 -7 5
-4 10 3 6 11 10 16 10 6 0 7 -4 4 -10z m45 -271 c0 -5 -4 -9 -10 -9 -5 0 -10
7 -10 16 0 8 5 12 10 9 6 -3 10 -10 10 -16z m85 -319 c-3 -5 -11 -10 -16 -10
-6 0 -7 5 -4 10 3 6 11 10 16 10 6 0 7 -4 4 -10z"/>
<path d="M5361 6351 c-12 -8 -12 -17 2 -63 l16 -53 -2 62 c-1 35 -2 63 -2 63
0 0 -6 -4 -14 -9z"/>
<path d="M6798 6353 c6 -2 18 -2 25 0 6 3 1 5 -13 5 -14 0 -19 -2 -12 -5z"/>
<path d="M6585 6300 c-3 -6 1 -7 9 -4 18 7 21 14 7 14 -6 0 -13 -4 -16 -10z"/>
<path d="M7750 6306 c0 -2 8 -10 18 -17 15 -13 16 -12 3 4 -13 16 -21 21 -21
13z"/>
<path d="M7009 6280 c-47 -10 -95 -23 -106 -28 -11 -6 -35 -14 -54 -17 -18 -3
-36 -10 -39 -14 -3 -4 -25 -18 -50 -32 -98 -52 -239 -172 -335 -284 -40 -47
-125 -172 -125 -184 0 -6 -7 -11 -16 -11 -8 0 -12 -4 -9 -10 10 -17 -6 -34
-17 -19 -7 10 -7 8 -3 -8 4 -13 -3 -40 -18 -70 -26 -50 -60 -173 -52 -182 11
-10 32 26 59 99 54 151 148 313 225 391 20 20 59 60 86 89 56 59 122 105 242
172 95 54 185 85 268 93 70 8 216 -10 262 -32 17 -8 44 -13 60 -11 22 3 7 10
-67 35 -122 39 -201 45 -311 23z"/>
<path d="M6530 6260 c-19 -16 -27 -27 -17 -24 9 3 17 11 17 16 0 6 8 7 17 4
10 -4 14 -4 10 0 -4 4 -2 13 4 21 19 22 5 15 -31 -17z"/>
<path d="M7795 6246 c9 -13 24 -27 33 -31 10 -4 5 6 -12 24 -36 37 -42 39 -21
7z"/>
<path d="M10198 6223 c7 -3 16 -2 19 1 4 3 -2 6 -13 5 -11 0 -14 -3 -6 -6z"/>
<path d="M5381 6210 c0 -8 4 -24 9 -35 5 -13 9 -14 9 -5 0 8 -4 24 -9 35 -5
13 -9 14 -9 5z"/>
<path d="M6425 6188 c-71 -51 -200 -192 -190 -208 14 -23 75 37 75 76 0 21
105 118 119 109 5 -2 16 6 25 20 20 30 11 31 -29 3z m-125 -152 c0 -2 -7 -7
-16 -10 -8 -3 -12 -2 -9 4 6 10 25 14 25 6z"/>
<path d="M10528 6183 c7 -3 16 -2 19 1 4 3 -2 6 -13 5 -11 0 -14 -3 -6 -6z"/>
<path d="M5437 6025 c3 -16 12 -43 19 -60 9 -23 12 -25 13 -10 0 11 -8 38 -19
60 -17 35 -18 36 -13 10z"/>
<path d="M13752 6020 c0 -14 2 -19 5 -12 2 6 2 18 0 25 -3 6 -5 1 -5 -13z"/>
<path d="M13761 5974 c0 -11 3 -14 6 -6 3 7 2 16 -1 19 -3 4 -6 -2 -5 -13z"/>
<path d="M6216 5955 c-4 -12 -1 -16 11 -13 18 3 21 20 5 26 -5 1 -12 -4 -16
-13z"/>
<path d="M10963 5956 c-23 -11 -33 -59 -15 -70 12 -7 38 27 44 57 6 29 4 30
-29 13z"/>
<path d="M8665 5924 c-88 -18 -193 -45 -234 -60 -90 -31 -179 -73 -188 -87 -3
-5 -2 -8 3 -5 14 7 74 34 127 57 41 18 181 54 385 101 29 7 61 10 72 7 11 -3
21 1 24 9 7 19 -2 18 -189 -22z"/>
<path d="M13286 5938 c8 -27 12 -33 19 -27 7 8 -7 49 -17 49 -5 0 -6 -10 -2
-22z"/>
<path d="M13771 5925 c0 -11 7 -60 17 -108 14 -65 15 -86 6 -83 -7 3 1 -17 18
-45 17 -27 32 -49 34 -49 3 0 -5 38 -26 110 -11 36 -25 94 -33 130 -8 36 -15
56 -16 45z"/>
<path d="M5471 5914 c0 -11 3 -14 6 -6 3 7 2 16 -1 19 -3 4 -6 -2 -5 -13z"/>
<path d="M5494 5847 c16 -48 45 -117 50 -117 2 0 1 12 -1 28 -2 15 -4 35 -4
45 0 9 -7 17 -15 17 -8 0 -12 5 -9 10 3 6 1 10 -5 10 -7 0 -9 8 -5 19 3 11 0
21 -9 24 -13 5 -13 0 -2 -36z"/>
<path d="M11630 5879 c0 -5 5 -7 10 -4 6 3 10 8 10 11 0 2 -4 4 -10 4 -5 0
-10 -5 -10 -11z"/>
<path d="M11018 5863 c-16 -18 -14 -43 3 -43 5 0 9 6 9 14 0 8 9 18 20 21 11
3 20 11 20 16 0 16 -36 10 -52 -8z"/>
<path d="M13262 5848 c-19 -24 -24 -101 -8 -151 14 -47 59 -117 75 -117 24 0
16 235 -10 266 -14 17 -43 18 -57 2z"/>
<path d="M13662 5844 c9 -11 32 -28 50 -38 l33 -19 -20 22 c-11 13 -33 30 -50
38 -29 15 -30 15 -13 -3z"/>
<path d="M10915 5840 c-3 -6 1 -7 9 -4 18 7 21 14 7 14 -6 0 -13 -4 -16 -10z"/>
<path d="M5170 5759 c0 -5 5 -7 10 -4 6 3 10 8 10 11 0 2 -4 4 -10 4 -5 0 -10
-5 -10 -11z"/>
<path d="M5255 5760 c3 -5 8 -10 11 -10 2 0 4 5 4 10 0 6 -5 10 -11 10 -5 0
-7 -4 -4 -10z"/>
<path d="M8892 5715 c0 -16 2 -22 5 -12 2 9 2 23 0 30 -3 6 -5 -1 -5 -18z"/>
<path d="M4903 5724 c-7 -3 -13 -15 -13 -27 0 -21 3 -22 126 -22 112 0 127 -2
139 -19 10 -14 18 -16 27 -9 25 20 132 -2 202 -41 63 -35 142 -105 173 -153
16 -24 53 -32 53 -11 0 7 -33 45 -74 85 -59 58 -95 83 -168 118 -51 25 -124
51 -163 59 -76 16 -282 29 -302 20z"/>
<path d="M8120 5709 c0 -5 5 -7 10 -4 6 3 10 8 10 11 0 2 -4 4 -10 4 -5 0 -10
-5 -10 -11z"/>
<path d="M8036 5641 c-103 -94 -236 -244 -225 -256 3 -2 34 33 69 77 36 44
101 114 145 154 44 41 77 74 73 74 -4 0 -32 -22 -62 -49z"/>
<path d="M11700 5669 c0 -4 9 -13 20 -19 16 -8 20 -8 20 3 0 8 -9 17 -20 20
-11 3 -20 1 -20 -4z"/>
<path d="M6551 5615 c-11 -19 -17 -35 -13 -35 5 0 16 16 25 35 9 19 15 35 13
35 -2 0 -13 -16 -25 -35z"/>
<path d="M4905 5630 c3 -5 16 -10 28 -9 21 0 21 1 2 9 -28 12 -37 12 -30 0z"/>
<path d="M9170 5635 c0 -5 5 -17 10 -25 5 -8 10 -10 10 -5 0 6 -5 17 -10 25
-5 8 -10 11 -10 5z"/>
<path d="M12887 5633 c-13 -12 -7 -35 24 -100 34 -71 49 -71 49 0 0 73 -42
131 -73 100z"/>
<path d="M13883 5590 c20 -24 37 -47 37 -51 0 -21 -115 -49 -212 -52 -90 -3
-113 -8 -182 -37 -82 -34 -137 -73 -123 -86 5 -5 32 4 60 19 115 60 165 72
280 69 l58 -2 -23 -31 c-29 -39 -116 -106 -148 -114 -15 -4 -38 0 -55 9 -39
21 -58 20 -78 -2 -12 -13 -14 -26 -8 -53 5 -21 4 -44 -1 -54 -9 -15 -7 -16 13
-9 13 4 53 15 89 25 36 10 118 36 182 58 65 22 128 41 140 43 38 5 56 111 31
178 -4 8 -5 21 -4 28 3 20 -24 57 -61 83 l-33 24 38 -45z"/>
<path d="M8332 5570 c0 -19 2 -27 5 -17 2 9 2 25 0 35 -3 9 -5 1 -5 -18z"/>
<path d="M5650 5554 c27 -46 60 -84 72 -84 19 0 5 23 -44 72 l-52 52 24 -40z"/>
<path d="M9206 5557 c3 -10 9 -15 12 -12 3 3 0 11 -7 18 -10 9 -11 8 -5 -6z"/>
<path d="M8321 5504 c0 -11 3 -14 6 -6 3 7 2 16 -1 19 -3 4 -6 -2 -5 -13z"/>
<path d="M8901 5424 c0 -11 3 -14 6 -6 3 7 2 16 -1 19 -3 4 -6 -2 -5 -13z"/>
<path d="M8313 5380 c0 -25 2 -35 4 -22 2 12 2 32 0 45 -2 12 -4 2 -4 -23z"/>
<path d="M10921 5394 c0 -11 3 -14 6 -6 3 7 2 16 -1 19 -3 4 -6 -2 -5 -13z"/>
<path d="M7775 5344 c-9 -15 -12 -23 -6 -20 11 7 35 46 28 46 -3 0 -12 -12
-22 -26z"/>
<path d="M12736 5345 c17 -8 71 -17 120 -21 72 -5 95 -11 122 -31 38 -28 46
-9 10 25 -37 34 -73 42 -181 41 -95 -1 -100 -2 -71 -14z"/>
<path d="M8303 5245 c0 -44 2 -61 4 -37 2 23 2 59 0 80 -2 20 -4 1 -4 -43z"/>
<path d="M13919 5291 c-9 -10 -57 -28 -108 -41 -51 -12 -91 -24 -89 -25 2 -2
54 4 116 13 112 16 112 16 112 44 0 32 -8 34 -31 9z"/>
<path d="M5617 5281 l-39 -16 21 -19 c12 -11 21 -31 21 -46 0 -23 -4 -26 -37
-28 -80 -5 -114 -12 -140 -29 -26 -17 -26 -18 -19 -113 3 -52 10 -111 16 -130
6 -19 15 -66 20 -104 l10 -70 -41 -42 c-33 -34 -41 -48 -37 -68 3 -15 2 -45
-2 -68 -5 -23 -6 -47 -3 -54 6 -17 94 -62 153 -80 25 -7 90 -22 145 -33 262
-51 486 -52 690 -5 178 42 262 82 289 138 25 54 19 75 -37 111 l-28 18 10 -27
c12 -29 9 -31 -20 -15 -11 6 -18 17 -15 24 3 8 -1 15 -8 17 -10 2 -10 14 0 63
25 115 54 290 60 367 8 87 6 89 -65 91 -21 1 -37 6 -34 11 3 4 -5 5 -17 1 -14
-4 -20 -3 -16 3 3 5 -6 10 -20 10 -15 0 -29 4 -33 9 -10 16 -66 31 -94 26 -21
-4 -27 -1 -27 13 0 16 -2 16 -14 4 -14 -15 -66 -104 -109 -188 -18 -37 -19
-44 -7 -52 11 -7 8 -10 -13 -10 -21 0 -30 6 -34 20 -7 28 -23 25 -23 -4 0 -33
-6 -35 -102 -46 -72 -8 -84 -7 -101 8 -13 11 -21 13 -24 6 -3 -8 -33 -10 -90
-8 -95 4 -114 13 -119 61 -2 15 -10 64 -18 108 -20 107 -20 129 -1 121 18 -7
19 5 3 26 -12 14 -16 14 -51 -1z m951 -168 c-13 -14 -35 -31 -50 -39 -48 -25
-44 -15 7 19 28 19 49 39 47 46 -1 7 2 9 9 6 7 -5 2 -16 -13 -32z m-1108 -97
c0 -28 -17 -8 -25 29 -7 29 -7 29 8 10 9 -11 17 -29 17 -39z m840 -6 c-14 -4
-38 -8 -55 -8 l-30 0 30 8 c17 4 41 8 55 8 l25 0 -25 -8z m-724 -87 c-10 -10
-19 5 -10 18 6 11 8 11 12 0 2 -7 1 -15 -2 -18z m-102 -322 l1 -89 -27 16
c-16 9 -29 19 -29 22 -7 28 -6 61 4 90 11 34 36 65 45 55 3 -3 5 -45 6 -94z
m961 -141 c-11 -5 -29 -8 -40 -8 -16 0 -15 2 5 8 34 11 60 11 35 0z"/>
<path d="M10891 5274 c0 -11 3 -14 6 -6 3 7 2 16 -1 19 -3 4 -6 -2 -5 -13z"/>
<path d="M12520 5235 c-19 -8 -55 -19 -79 -25 -42 -11 -43 -12 -37 -43 11 -56
51 -82 119 -78 10 1 44 26 76 56 l58 55 76 0 c42 0 108 -5 146 -12 74 -13 92
-8 75 20 -9 14 -35 18 -160 23 -82 3 -169 9 -194 12 -28 4 -58 1 -80 -8z"/>
<path d="M13775 5185 l-100 -22 120 5 c112 4 145 12 145 33 0 14 -57 9 -165
-16z"/>
<path d="M7622 5118 c-21 -35 -47 -78 -56 -95 -30 -59 -9 -35 35 40 23 39 49
82 57 95 8 12 12 22 9 22 -3 0 -23 -28 -45 -62z"/>
<path d="M13340 5169 c0 -5 5 -7 10 -4 6 3 10 8 10 11 0 2 -4 4 -10 4 -5 0
-10 -5 -10 -11z"/>
<path d="M8293 5110 c0 -30 2 -43 4 -27 2 15 2 39 0 55 -2 15 -4 2 -4 -28z"/>
<path d="M12858 5139 c-26 -14 -32 -59 -11 -75 15 -10 9 -10 -30 1 -31 9 -69
12 -105 9 -68 -7 -222 -43 -238 -55 -6 -5 -15 -5 -19 -1 -5 4 1 -7 12 -23 40
-57 56 -60 189 -32 66 14 146 29 179 32 72 9 80 13 64 31 -9 11 -6 15 20 20
17 4 29 9 27 12 -3 2 -1 14 5 24 8 15 7 24 -3 34 -20 20 -72 33 -90 23z"/>
<path d="M13735 5131 l-110 -17 113 -27 c62 -15 117 -27 122 -27 8 0 50 70 50
85 0 8 -55 4 -175 -14z"/>
<path d="M10095 5089 c-4 -6 -5 -12 -2 -15 2 -3 7 2 10 11 7 17 1 20 -8 4z"/>
<path d="M6058 5063 c5 -21 7 -23 10 -9 2 10 0 22 -6 28 -6 6 -7 0 -4 -19z"/>
<path d="M13279 5058 c-1 -2 -3 -15 -4 -30 -9 -67 -78 -141 -150 -157 -33 -7
-35 -9 -12 -10 35 -1 76 19 144 71 l53 40 41 -16 c23 -9 44 -14 47 -11 3 3 1
5 -5 5 -17 0 -114 91 -107 101 3 5 3 9 0 9 -3 0 -7 -1 -7 -2z"/>
<path d="M13640 5033 c0 -16 -3 -38 -6 -50 -6 -22 -4 -22 69 -20 88 2 88 -1 5
-79 -81 -76 -184 -150 -245 -178 -18 -8 -33 -20 -33 -25 0 -15 37 -14 43 2 2
6 7 -3 11 -21 10 -41 6 -45 -28 -32 -15 5 -40 10 -56 10 -44 0 -139 -39 -151
-62 -15 -29 -2 -86 23 -99 30 -16 114 -6 176 21 41 18 52 27 52 46 0 14 5 22
13 19 13 -5 64 40 143 127 43 48 50 52 46 30 -3 -14 -18 -46 -34 -71 -15 -25
-28 -50 -28 -55 0 -6 5 -4 10 4 6 10 10 11 10 3 0 -28 36 -9 107 56 75 69 107
112 95 128 -4 4 3 -1 16 -11 22 -19 23 -19 57 -1 19 11 37 16 41 12 4 -4 9
-32 12 -62 3 -40 0 -62 -12 -79 -15 -24 -58 -165 -55 -183 1 -4 0 -12 -1 -18
-1 -5 -1 -26 -1 -45 2 -43 -31 -140 -53 -155 -25 -18 -45 -113 -33 -155 5 -19
7 -57 4 -85 -3 -27 -11 -97 -17 -155 -6 -58 -13 -115 -16 -128 l-4 -22 -42 21
c-38 19 -46 20 -102 9 -109 -21 -280 -72 -302 -91 -17 -14 -19 7 -5 44 19 49
71 298 75 364 5 66 5 64 -14 -32 -55 -272 -82 -376 -112 -414 -10 -13 -18 -39
-18 -59 0 -30 2 -33 15 -22 32 26 157 -1 258 -56 15 -9 35 -13 43 -10 7 3 14
2 14 -3 0 -5 15 -12 33 -15 17 -3 45 -16 61 -29 l28 -23 -36 -78 c-20 -44 -36
-84 -36 -89 0 -21 18 8 45 72 23 56 123 187 134 176 2 -2 -9 -26 -24 -52 -15
-26 -52 -96 -82 -155 -51 -102 -95 -168 -113 -168 -4 0 -10 9 -13 19 -3 13
-19 24 -45 30 -49 14 -340 33 -355 24 -13 -8 -4 42 17 91 l15 36 78 -1 c43 -1
89 4 103 9 14 6 18 11 10 12 -10 0 -7 7 10 20 25 20 25 20 3 20 -26 0 -29 10
-11 28 10 10 -2 11 -52 8 -36 -2 -78 -7 -94 -12 -32 -8 -32 -8 -10 94 6 28 4
31 -11 26 -11 -4 -15 -14 -11 -26 2 -11 0 -32 -5 -45 -9 -25 -11 -24 -96 62
-48 48 -98 94 -111 103 -22 14 -25 14 -34 -1 -10 -18 -68 -24 -68 -7 0 6 -6
10 -12 10 -7 0 -26 18 -41 40 -51 72 -158 140 -290 184 -68 23 -85 20 -106
-15 -16 -25 -17 -37 -8 -71 12 -48 47 -73 127 -89 74 -15 230 -58 252 -70 10
-6 18 -21 18 -37 0 -15 9 -46 20 -69 25 -55 8 -67 -33 -23 -49 53 -130 85
-208 84 -36 -1 -77 -4 -90 -7 -22 -5 -26 0 -53 66 -16 40 -37 83 -48 96 -10
13 -18 31 -18 40 0 21 -45 117 -59 125 -6 4 3 -30 20 -76 18 -46 49 -130 69
-188 49 -136 77 -200 88 -200 15 0 69 -54 85 -86 24 -47 54 -176 73 -312 14
-100 16 -138 7 -197 -19 -135 -100 -264 -175 -280 -29 -7 -30 -9 -13 -16 11
-4 15 -8 8 -8 -6 -1 -19 -4 -29 -8 -12 -5 -15 -3 -9 6 5 10 2 12 -11 7 -11 -3
-86 -17 -169 -31 -82 -14 -175 -32 -205 -39 -46 -11 -129 -29 -225 -50 -13 -2
-10 -4 9 -5 17 0 57 5 90 13 125 29 178 37 366 56 91 9 271 48 230 49 -10 1
-4 11 16 32 l31 31 41 -21 c22 -11 43 -25 47 -31 3 -5 30 -10 59 -10 28 0 58
-6 64 -12 8 -8 43 -13 90 -14 42 -1 97 -5 122 -9 l45 -7 -45 23 c-49 26 -67
59 -56 103 4 15 14 30 23 33 9 4 24 14 34 24 26 26 84 34 156 19 62 -12 65
-12 103 14 22 14 45 26 52 26 7 0 25 6 39 14 22 11 28 11 47 -5 27 -21 28 -29
2 -29 -11 0 -20 -7 -20 -15 0 -8 5 -15 11 -15 5 0 7 -5 3 -12 -5 -7 -1 -9 13
-6 19 5 19 4 8 -19 -16 -30 -47 -50 -143 -87 -39 -16 -70 -31 -68 -34 3 -2 51
15 107 38 107 44 213 80 234 80 7 0 23 9 36 20 21 17 21 19 4 13 l-20 -6 20
20 c11 11 22 16 23 11 6 -14 22 2 37 39 20 48 19 66 -6 81 -14 9 -18 19 -13
34 6 19 3 20 -25 15 l-32 -7 29 25 c17 14 51 29 77 34 25 5 49 11 52 15 13 13
-79 5 -114 -9 -19 -8 -43 -15 -52 -15 -10 0 -39 -14 -65 -31 -27 -16 -55 -28
-63 -25 -7 3 -16 -1 -19 -9 -7 -17 -13 -18 -33 -6 -11 7 -7 23 23 82 42 86 95
155 96 126 0 -11 6 -17 16 -15 8 2 14 6 12 11 -2 4 24 23 57 43 73 44 105 79
170 186 52 86 85 129 85 111 0 -6 12 -10 27 -10 l27 0 -27 14 c-34 17 -34 19
1 20 69 2 82 7 82 31 0 13 -4 20 -10 17 -6 -4 -8 -10 -5 -15 3 -5 1 -11 -4
-14 -5 -4 -12 -2 -15 3 -9 14 4 41 20 41 9 0 14 11 14 30 0 23 -5 30 -19 30
-15 0 -18 -5 -14 -22 5 -19 3 -21 -7 -11 -11 10 -16 9 -27 -5 -18 -21 -8 -1
24 51 13 21 28 35 33 32 7 -4 10 258 10 724 0 685 -1 731 -17 740 -10 5 -45
14 -77 21 -33 7 -67 16 -75 20 -23 12 -127 30 -173 30 -35 0 -38 -2 -38 -27z
m240 -213 c-8 -5 -17 -7 -19 -4 -3 3 1 9 9 14 8 5 17 7 19 4 3 -3 -1 -9 -9
-14z m-383 -232 c-3 -8 -6 -5 -6 6 -1 11 2 17 5 13 3 -3 4 -12 1 -19z m394
-991 c-17 -17 -23 -2 -11 27 5 15 11 39 12 54 1 15 3 5 5 -22 2 -27 0 -53 -6
-59z m-922 -129 c8 -13 30 -54 49 -92 20 -38 62 -97 94 -131 32 -35 58 -68 58
-75 0 -23 -40 -149 -49 -155 -5 -3 -48 9 -96 27 -101 37 -114 54 -116 150 -1
64 -3 63 -14 -6 l-6 -39 -19 30 c-27 46 -141 122 -182 123 -7 1 -33 24 -57 52
-32 36 -39 49 -25 45 27 -8 139 -25 207 -32 64 -7 96 -31 98 -74 l1 -26 8 27
c4 15 11 66 15 113 4 47 10 85 14 85 3 0 13 -10 20 -22z m981 -80 c0 -16 -3
-19 -11 -11 -6 6 -8 16 -5 22 11 17 16 13 16 -11z m-742 -330 c10 -10 151 -34
264 -44 l67 -5 -50 -76 c-27 -42 -49 -80 -49 -85 0 -6 -15 3 -34 20 -35 31
-75 43 -212 64 l-70 11 30 94 c28 86 31 92 37 63 4 -18 11 -36 17 -42z m-380
24 l52 -16 0 -44 c0 -36 -3 -43 -16 -38 -9 3 -33 6 -55 6 -43 0 -54 15 -66 89
-6 31 -4 34 13 27 10 -4 43 -15 72 -24z m117 -96 c19 -19 57 -42 85 -51 55
-18 57 -22 35 -90 -3 -11 5 0 19 25 23 41 25 42 26 19 0 -31 28 -52 91 -69 24
-7 49 -16 56 -22 7 -5 31 -9 55 -7 24 1 62 -1 86 -5 52 -9 46 -22 -30 -63 -27
-15 -56 -40 -64 -55 -14 -28 -15 -28 -45 -12 -76 39 -199 26 -252 -27 -30 -30
-31 -45 -14 -143 1 -6 -11 -12 -28 -14 -63 -5 -133 69 -120 127 3 15 28 49 55
76 43 43 52 47 82 41 18 -3 51 -9 73 -12 l40 -7 -26 29 c-20 22 -25 34 -19 49
5 11 9 26 9 34 1 12 -2 11 -11 -2 -11 -14 -20 -15 -57 -6 -24 5 -58 9 -75 7
-29 -3 -31 -1 -30 27 2 55 17 185 21 185 2 0 19 -15 38 -34z m-133 -124 c40
-7 42 -9 42 -42 1 -34 2 -35 46 -36 66 -2 70 -3 70 -14 0 -5 -6 -10 -12 -10
-23 -1 -92 -60 -115 -98 -27 -43 -29 -91 -8 -132 l16 -30 -38 0 c-29 0 -48 9
-80 36 -24 20 -43 44 -43 53 0 9 14 49 30 90 23 55 30 89 30 138 0 39 4 62 10
58 5 -3 29 -9 52 -13z m713 -152 c-3 -5 -11 -10 -16 -10 -6 0 -7 5 -4 10 3 6
11 10 16 10 6 0 7 -4 4 -10z m35 -20 c0 -5 -7 -10 -15 -10 -8 0 -15 5 -15 10
0 6 7 10 15 10 8 0 15 -4 15 -10z"/>
<path d="M9050 5016 c0 -2 8 -10 18 -17 15 -13 16 -12 3 4 -13 16 -21 21 -21
13z"/>
<path d="M6010 4990 c0 -5 5 -10 11 -10 5 0 7 5 4 10 -3 6 -8 10 -11 10 -2 0
-4 -4 -4 -10z"/>
<path d="M12745 4944 c-99 -21 -183 -48 -179 -59 6 -15 132 -65 182 -72 29 -4
51 1 88 20 82 42 121 87 75 87 -33 0 -164 -28 -210 -44 -24 -9 -46 -14 -48
-12 -9 9 62 50 115 66 44 14 50 18 27 18 -16 0 -39 -2 -50 -4z"/>
<path d="M9207 4879 c13 -16 93 -63 93 -55 0 2 -24 19 -52 36 -29 18 -47 26
-41 19z"/>
<path d="M7467 4843 c-4 -3 -7 -13 -7 -22 1 -13 3 -13 11 2 11 19 8 33 -4 20z"/>
<path d="M5210 4810 c8 -5 22 -9 30 -9 10 0 8 3 -5 9 -27 12 -43 12 -25 0z"/>
<path d="M9755 4805 c-25 -12 -26 -14 -5 -9 28 7 60 23 45 23 -5 0 -23 -6 -40
-14z"/>
<path d="M9417 4794 c-3 -3 0 -18 6 -33 16 -37 54 -87 61 -80 3 3 -8 24 -25
47 -17 23 -28 49 -25 57 5 15 -5 21 -17 9z"/>
<path d="M5320 4755 c19 -19 36 -35 39 -35 3 0 -10 16 -29 35 -19 19 -36 35
-39 35 -3 0 10 -16 29 -35z"/>
<path d="M12650 4744 c0 -26 47 -100 78 -122 15 -11 45 -30 67 -42 22 -13 58
-34 81 -47 58 -33 130 -45 146 -25 7 9 8 13 2 9 -6 -3 -11 0 -11 7 0 36 -47
87 -103 113 -33 15 -58 28 -56 30 3 4 186 -36 198 -43 4 -3 1 -12 -7 -20 -21
-22 -19 -67 5 -95 18 -19 24 -21 40 -11 16 10 20 8 25 -8 8 -25 35 -26 35 -3
0 14 3 13 16 -5 10 -14 25 -22 45 -22 34 0 37 17 15 71 -31 78 -30 86 17 102
l42 14 -80 -5 c-44 -2 -81 -5 -82 -6 -1 -1 3 -21 8 -45 10 -45 5 -69 -7 -35
-13 35 -55 84 -72 84 -10 0 -69 13 -132 29 -97 24 -147 41 -257 88 -8 3 -13
-2 -13 -13z"/>
<path d="M8272 4710 c0 -14 2 -19 5 -12 2 6 2 18 0 25 -3 6 -5 1 -5 -13z"/>
<path d="M13315 4664 l-30 -15 35 6 c19 3 39 10 44 15 15 15 -14 11 -49 -6z"/>
<path d="M8172 4540 c0 -14 2 -19 5 -12 2 6 2 18 0 25 -3 6 -5 1 -5 -13z"/>
<path d="M8140 4526 c0 -9 5 -16 10 -16 6 0 10 4 10 9 0 6 -4 13 -10 16 -5 3
-10 -1 -10 -9z"/>
<path d="M5260 4500 c-21 -7 -21 -8 -5 -9 11 0 27 4 35 9 18 11 5 11 -30 0z"/>
<path d="M5065 4475 l-30 -13 28 -1 c15 -1 27 4 27 9 0 6 9 10 21 10 11 0 17
-4 14 -10 -7 -11 0 -12 33 -4 12 4 22 10 22 15 0 14 -81 10 -115 -6z"/>
<path d="M5010 4470 c0 -5 5 -10 11 -10 5 0 7 5 4 10 -3 6 -8 10 -11 10 -2 0
-4 -4 -4 -10z"/>
<path d="M4890 4460 c0 -5 7 -10 16 -10 8 0 12 5 9 10 -3 6 -10 10 -16 10 -5
0 -9 -4 -9 -10z"/>
<path d="M10851 4454 c0 -11 3 -14 6 -6 3 7 2 16 -1 19 -3 4 -6 -2 -5 -13z"/>
<path d="M4943 4453 c9 -2 25 -2 35 0 9 3 1 5 -18 5 -19 0 -27 -2 -17 -5z"/>
<path d="M5420 4444 c8 -8 23 -20 34 -26 19 -10 18 -8 -3 16 -26 27 -53 37
-31 10z"/>
<path d="M10861 4404 c0 -11 3 -14 6 -6 3 7 2 16 -1 19 -3 4 -6 -2 -5 -13z"/>
<path d="M12591 4374 c0 -11 3 -14 6 -6 3 7 2 16 -1 19 -3 4 -6 -2 -5 -13z"/>
<path d="M12570 4305 c0 -8 -6 -24 -12 -35 -9 -14 -10 -23 -3 -28 6 -4 10 -15
10 -24 0 -10 5 -18 10 -19 11 0 37 100 29 113 -9 14 -34 9 -34 -7z"/>
<path d="M12690 4315 c0 -6 7 -38 15 -73 16 -69 45 -131 110 -237 58 -94 88
-185 73 -225 -12 -36 -4 -89 18 -116 14 -18 14 -18 3 5 -7 15 -9 41 -4 70 14
91 9 116 -45 217 -28 53 -62 124 -74 158 -27 70 -96 215 -96 201z"/>
<path d="M12780 4252 c0 -19 29 -86 35 -80 3 3 -4 25 -15 49 -11 24 -20 38
-20 31z"/>
<path d="M12496 4215 c-21 -18 -25 -25 -13 -25 10 0 17 4 17 10 0 5 11 12 25
16 14 3 25 10 25 15 0 17 -25 9 -54 -16z"/>
<path d="M10945 4190 c9 -16 18 -30 21 -30 2 0 -2 14 -11 30 -9 17 -18 30 -21
30 -2 0 2 -13 11 -30z"/>
<path d="M6690 4190 c-30 -5 -86 -12 -125 -15 -103 -10 -191 -32 -241 -61 -43
-26 -48 -26 -112 -16 -36 6 -68 9 -70 7 -7 -7 121 -37 578 -135 74 -16 203
-45 285 -65 83 -20 202 -47 265 -60 63 -14 216 -47 340 -75 217 -49 304 -66
660 -131 225 -41 614 -119 619 -125 12 -12 -11 -14 -46 -5 -21 6 -119 24 -218
41 -99 17 -220 40 -270 51 -162 35 -312 59 -357 57 -23 -1 -53 4 -66 10 -12 7
-27 10 -32 7 -5 -3 -11 -1 -15 5 -3 5 -13 10 -22 10 -9 0 -13 -3 -10 -7 4 -3
-1 -12 -11 -20 -16 -13 -16 -13 3 -12 11 1 28 -1 38 -6 9 -4 24 -5 31 -2 11 4
13 1 9 -10 -5 -12 -1 -14 17 -8 25 8 70 -11 70 -31 0 -6 7 -14 15 -18 17 -6
21 -46 5 -46 -5 0 -10 10 -10 22 0 12 -2 19 -5 16 -9 -8 -10 -156 -2 -164 4
-4 7 5 7 20 0 16 4 25 10 21 6 -3 10 -32 10 -64 0 -49 -4 -61 -22 -74 -14 -10
-19 -19 -13 -24 13 -10 35 -50 35 -63 0 -11 -40 8 -52 25 -4 5 -9 7 -12 4 -3
-3 5 -28 19 -54 18 -37 21 -52 13 -62 -7 -9 -8 -38 -4 -86 4 -39 9 -85 10
-102 1 -16 6 -38 10 -48 12 -26 -1 -117 -19 -137 -8 -9 -15 -26 -15 -38 0 -11
-7 -27 -15 -36 -8 -8 -15 -24 -15 -36 0 -16 -4 -20 -16 -16 -12 4 -14 1 -9
-14 4 -14 1 -22 -10 -26 -14 -6 -16 -15 -10 -50 6 -40 4 -44 -15 -44 -19 0
-21 -4 -16 -25 5 -20 3 -25 -13 -25 -11 0 -26 -7 -34 -15 -12 -11 -17 -12 -20
-2 -3 7 -6 4 -6 -7 -1 -12 -6 -16 -16 -12 -9 3 -19 -3 -25 -14 -7 -14 -7 -20
0 -20 5 0 10 -5 10 -10 0 -6 -11 -8 -24 -6 -18 3 -23 1 -19 -10 3 -8 0 -14 -6
-14 -6 0 -11 5 -11 10 0 7 -7 7 -21 -1 -15 -8 -18 -14 -10 -22 14 -14 14 -37
0 -37 -6 0 -17 6 -24 14 -7 7 -31 13 -52 12 -35 -1 -38 -3 -36 -28 1 -21 -3
-28 -16 -28 -10 0 -21 -9 -24 -20 -6 -25 -60 -27 -112 -6 -39 16 -47 5 -19
-25 20 -22 11 -39 -21 -39 -18 0 -23 4 -19 15 10 24 -19 18 -65 -15 -23 -17
-47 -28 -53 -24 -7 4 -8 3 -4 -5 4 -6 3 -17 -2 -24 -19 -25 -22 -76 -5 -93 26
-26 24 -54 -4 -54 -13 0 -34 -9 -46 -20 -18 -18 -19 -22 -7 -30 12 -8 13 -13
3 -30 -7 -11 -13 -29 -13 -39 0 -11 -5 -23 -11 -26 -5 -4 -14 -18 -19 -31 -5
-13 -18 -24 -28 -24 -9 0 -26 -6 -37 -14 -18 -12 -32 -10 -115 16 -52 16 -160
50 -239 74 -233 73 -303 113 -324 189 -3 11 -24 85 -47 165 -57 197 -136 504
-160 623 -11 53 -40 175 -64 270 -24 94 -53 215 -65 267 -11 52 -39 172 -61
265 -41 173 -60 343 -46 417 3 20 18 48 32 63 22 24 31 27 69 22 53 -5 51 8
-1 18 -69 12 -114 -57 -114 -174 l0 -70 -32 -10 -33 -9 32 -1 c35 -1 51 -28
35 -57 -6 -10 -1 -49 15 -112 12 -54 23 -109 23 -124 0 -15 4 -29 9 -32 4 -3
16 -34 25 -68 10 -35 20 -71 22 -80 13 -45 -131 1 -189 60 -20 20 -43 55 -51
77 -8 22 -15 32 -15 22 -3 -75 112 -173 224 -191 l41 -7 23 -102 c13 -56 30
-127 38 -157 8 -30 32 -134 53 -230 44 -201 102 -437 129 -525 10 -33 26 -89
36 -125 59 -220 91 -278 184 -325 52 -26 239 -90 481 -165 91 -29 217 -69 280
-90 63 -21 187 -58 275 -83 263 -74 742 -213 865 -251 63 -20 239 -72 390
-116 151 -43 302 -89 335 -100 33 -11 94 -23 135 -26 l75 -6 120 60 c138 69
418 270 423 305 3 14 6 17 12 7 6 -9 21 -2 61 28 30 23 99 75 154 117 55 41
118 90 140 109 22 18 139 107 260 199 121 91 227 176 236 189 9 13 20 43 24
68 l7 44 -48 -42 c-107 -92 -299 -236 -421 -314 -165 -106 -607 -435 -699
-521 -40 -37 -75 -67 -78 -67 -3 0 -6 21 -6 48 -1 26 -7 79 -14 117 -8 39 -13
70 -12 71 39 20 105 70 214 161 76 63 158 126 184 141 27 15 48 34 48 44 0 15
28 43 79 78 12 8 33 32 48 52 18 27 33 38 52 38 38 1 100 32 145 74 35 32 38
39 25 51 -15 15 -114 45 -148 45 -10 0 -29 8 -42 18 -25 19 -130 52 -165 52
-11 0 -35 -9 -54 -20 -19 -11 -68 -36 -109 -56 -64 -32 -78 -36 -110 -28 -31
8 -36 13 -36 39 0 25 13 40 85 98 47 38 130 95 185 128 55 32 98 59 95 59 -22
0 -121 -48 -163 -79 -29 -21 -62 -43 -74 -50 -13 -6 -64 -48 -115 -92 -51 -44
-102 -82 -113 -85 -26 -7 -74 11 -81 30 -16 42 161 254 267 322 79 49 86 55
39 33 -114 -55 -222 -152 -285 -257 -46 -76 -68 -91 -96 -66 -30 27 -23 64 32
170 66 129 103 172 197 234 98 66 102 71 23 29 -102 -54 -166 -119 -208 -210
-44 -93 -68 -105 -78 -36 -3 23 -4 58 -2 77 3 19 1 40 -3 45 -4 6 -13 51 -19
100 -7 50 -28 166 -47 259 -18 93 -32 171 -31 173 2 1 100 -8 218 -22 118 -13
237 -27 264 -29 87 -9 -163 33 -325 54 -85 11 -157 24 -161 28 -3 4 -14 36
-24 72 -40 146 -100 243 -192 307 -87 60 -114 72 -210 87 -69 12 -519 99 -619
121 -20 4 -21 13 -27 147 -8 181 -18 273 -27 257 -4 -6 -6 -28 -4 -48 18 -184
25 -296 20 -317 -7 -25 -9 -25 -59 -19 -74 9 -87 14 -87 33 0 23 47 122 58
122 7 0 15 28 37 140 3 14 -6 -4 -19 -40 -13 -36 -42 -99 -64 -141 -21 -41
-41 -81 -43 -88 -3 -9 -63 2 -229 42 -292 70 -418 97 -458 97 -17 0 -58 9 -89
19 -32 11 -76 22 -98 26 -71 11 -75 14 -75 51 0 66 31 115 95 148 17 9 23 16
15 16 -8 -1 -31 -9 -50 -19 -34 -19 -35 -19 -63 1 -50 35 -190 91 -237 94 -25
1 -70 -2 -100 -6z m1540 -1800 c0 -11 -4 -20 -10 -20 -5 0 -10 9 -10 20 0 11
5 20 10 20 6 0 10 -9 10 -20z m150 -84 c0 -11 -19 -15 -25 -6 -3 5 1 10 9 10
9 0 16 -2 16 -4z m-27 -68 l16 -23 0 23 c1 30 50 32 58 2 3 -11 10 -20 15 -20
6 0 23 -11 40 -25 35 -29 108 -36 108 -10 0 22 37 18 50 -4 15 -29 12 -123 -5
-145 -17 -22 -20 -76 -5 -76 11 0 12 -62 1 -100 -8 -27 5 -80 20 -80 5 0 9
-12 8 -27 0 -24 -2 -25 -8 -9 -10 25 -15 16 -36 -59 -19 -69 -19 -68 -17 -118
2 -34 5 -38 25 -35 16 2 23 11 25 32 2 16 -2 32 -9 36 -6 5 -9 15 -6 25 4 9
12 13 17 10 6 -4 20 3 31 16 l19 22 0 -30 c0 -25 6 -34 34 -47 19 -9 41 -16
51 -16 9 0 14 -4 11 -9 -3 -4 -18 -7 -33 -5 -24 4 -23 2 10 -14 21 -9 35 -21
30 -26 -4 -5 2 -7 15 -3 19 4 22 1 22 -23 0 -16 -6 -31 -12 -33 -10 -4 -10 -8
-2 -14 6 -4 14 -18 18 -30 5 -15 12 -20 24 -17 13 5 14 4 4 -4 -7 -5 -15 -27
-16 -49 -2 -23 -7 -47 -11 -54 -5 -7 -4 -14 3 -17 7 -2 12 -14 12 -27 0 -43
-32 -39 -255 31 -77 24 -180 55 -230 69 -107 30 -300 88 -405 121 -41 13 -111
33 -155 44 -119 32 -119 32 -131 42 -7 5 -16 8 -20 7 -5 -1 -18 -1 -29 1 l-20
1 20 9 c20 9 20 9 0 9 -12 1 -27 7 -34 14 -11 10 -14 10 -18 0 -3 -7 -12 -13
-21 -13 -15 0 -15 2 -2 10 12 8 12 10 -4 16 -14 5 -15 9 -4 15 9 6 4 9 -14 9
-16 0 -28 5 -28 10 0 6 -11 8 -25 4 -14 -3 -25 -2 -25 3 0 6 -12 15 -26 22
-15 6 -24 14 -21 18 10 9 -12 43 -28 43 -8 0 -15 -4 -15 -10 0 -5 -12 -10 -26
-10 -20 0 -24 4 -19 19 4 15 0 20 -17 23 -18 2 -24 12 -31 51 -4 26 -4 62 1
80 8 29 12 32 48 32 39 0 39 0 42 44 3 33 8 44 23 48 10 3 19 14 19 23 0 22
37 37 53 21 16 -16 57 -14 63 3 3 8 23 17 43 21 27 4 42 14 52 31 11 22 19 25
59 23 25 -1 53 2 64 6 11 5 27 3 38 -4 22 -14 48 0 48 26 0 10 6 13 16 9 9 -3
24 -6 35 -6 13 0 19 -7 20 -22 1 -22 1 -22 8 2 5 19 14 26 39 28 24 2 32 8 32
23 0 28 38 25 42 -3 2 -15 11 -24 26 -26 16 -2 22 -8 18 -18 -4 -10 2 -14 20
-14 21 0 25 -4 21 -19 -4 -16 2 -21 32 -26 41 -7 81 -36 81 -58 0 -19 13 -24
56 -19 25 3 34 9 34 23 0 12 7 19 20 19 24 0 27 25 4 34 -9 3 -14 13 -10 21 3
8 1 17 -4 20 -11 7 -14 108 -3 118 11 12 20 8 36 -15z m-612 -51 c-13 -13 -15
1 -4 30 7 17 8 17 11 -1 2 -10 -1 -23 -7 -29z m-254 -39 c-3 -8 -6 -5 -6 6 -1
11 2 17 5 13 3 -3 4 -12 1 -19z m2526 -136 c29 -54 30 -75 3 -52 -9 6 -21 10
-28 7 -7 -2 -35 4 -61 15 -27 10 -54 15 -60 12 -7 -4 6 12 28 35 55 57 80 54
118 -17z m-2801 -144 c-9 -9 -12 -7 -12 12 0 19 3 21 12 12 9 -9 9 -15 0 -24z
m1428 -314 c0 -8 -5 -12 -10 -9 -6 4 -8 11 -5 16 9 14 15 11 15 -7z m260 -318
c0 -11 -19 -15 -25 -6 -3 5 1 10 9 10 9 0 16 -2 16 -4z"/>
<path d="M7740 2130 c0 -5 7 -10 15 -10 8 0 15 5 15 10 0 6 -7 10 -15 10 -8 0
-15 -4 -15 -10z"/>
<path d="M7530 2030 c0 -5 5 -10 10 -10 6 0 10 5 10 10 0 6 -4 10 -10 10 -5 0
-10 -4 -10 -10z"/>
<path d="M7715 2030 c-3 -5 -1 -10 4 -10 6 0 11 5 11 10 0 6 -2 10 -4 10 -3 0
-8 -4 -11 -10z"/>
<path d="M8560 2000 c0 -5 5 -10 10 -10 6 0 10 5 10 10 0 6 -4 10 -10 10 -5 0
-10 -4 -10 -10z"/>
<path d="M7282 1855 c0 -16 2 -22 5 -12 2 9 2 23 0 30 -3 6 -5 -1 -5 -18z"/>
<path d="M7320 1831 c0 -6 5 -13 10 -16 6 -3 10 1 10 9 0 9 -4 16 -10 16 -5 0
-10 -4 -10 -9z"/>
<path d="M13432 4145 c0 -16 2 -22 5 -12 2 9 2 23 0 30 -3 6 -5 -1 -5 -18z"/>
<path d="M12430 4129 c0 -5 5 -7 10 -4 6 3 10 8 10 11 0 2 -4 4 -10 4 -5 0
-10 -5 -10 -11z"/>
<path d="M5350 4120 c14 -4 36 -8 50 -8 23 -1 23 0 5 8 -11 5 -33 8 -50 8 -29
0 -29 0 -5 -8z"/>
<path d="M12830 4118 c0 -9 5 -20 10 -23 13 -8 13 5 0 25 -8 13 -10 13 -10 -2z"/>
<path d="M5430 4106 c0 -2 7 -7 16 -10 8 -3 12 -2 9 4 -6 10 -25 14 -25 6z"/>
<path d="M12280 4051 c0 -6 4 -13 10 -16 6 -3 7 1 4 9 -7 18 -14 21 -14 7z"/>
<path d="M12550 4028 c0 -46 48 -98 119 -131 74 -33 121 -42 121 -22 0 14 -9
25 -51 60 -44 37 -144 103 -166 110 -19 5 -23 3 -23 -17z"/>
<path d="M11235 4006 c10 -14 19 -26 22 -26 7 0 -17 39 -28 46 -6 3 -3 -5 6
-20z"/>
<path d="M11286 3919 c14 -28 27 -49 30 -47 5 5 -45 98 -52 98 -2 0 7 -23 22
-51z"/>
<path d="M5479 3859 c-15 -16 -23 -29 -20 -29 10 0 55 49 50 54 -2 2 -16 -9
-30 -25z"/>
<path d="M12366 3877 c3 -10 9 -15 12 -12 3 3 0 11 -7 18 -10 9 -11 8 -5 -6z"/>
<path d="M5806 3859 c-20 -16 -26 -29 -26 -57 1 -40 16 -63 71 -105 29 -21 38
-36 42 -68 8 -64 22 -64 22 -1 0 51 -2 58 -25 68 -14 6 -43 27 -64 47 -29 28
-37 42 -34 64 4 35 40 43 71 16 18 -15 19 -15 9 -1 -8 10 -11 26 -7 38 9 27
-23 27 -59 -1z"/>
<path d="M11320 3851 c0 -5 7 -15 17 -22 15 -13 15 -12 4 9 -12 23 -21 28 -21
13z"/>
<path d="M11421 3690 c8 -14 38 -63 66 -110 l51 -85 -14 -145 c-18 -193 -16
-188 -72 -212 -87 -37 -137 -59 -154 -69 -10 -5 -23 -9 -29 -9 -7 0 -37 -12
-68 -27 -31 -14 -69 -32 -86 -39 -16 -7 -24 -13 -17 -14 8 0 84 27 170 61 190
73 371 137 420 147 46 10 49 23 14 64 -16 18 -44 62 -62 97 -17 35 -47 87 -65
115 -18 28 -58 93 -90 144 -32 51 -63 96 -69 99 -6 4 -4 -4 5 -17z m116 -472
c-3 -8 -6 -5 -6 6 -1 11 2 17 5 13 3 -3 4 -12 1 -19z"/>
<path d="M4971 3527 c22 -17 100 -57 95 -48 -7 11 -79 51 -92 51 -4 0 -5 -1
-3 -3z"/>
<path d="M5081 3411 c-1 -8 -9 -24 -18 -35 -16 -20 -16 -20 6 0 13 12 21 28
18 35 -4 11 -6 11 -6 0z"/>
<path d="M5118 3267 l-18 -42 20 24 c11 13 20 32 20 42 0 27 -3 24 -22 -24z"/>
<path d="M13975 3194 c-22 -18 -34 -34 -27 -34 9 0 10 -5 2 -19 -16 -30 -12
-36 10 -16 11 10 20 13 20 7 0 -6 -4 -14 -10 -17 -5 -3 -10 -11 -10 -16 0 -6
5 -7 10 -4 13 8 13 -1 -1 -27 -11 -20 -11 -20 14 -2 21 16 26 31 32 87 3 38 5
70 3 72 -2 2 -21 -12 -43 -31z"/>
<path d="M9788 2993 c6 -2 18 -2 25 0 6 3 1 5 -13 5 -14 0 -19 -2 -12 -5z"/>
<path d="M9930 2975 c41 -7 113 -22 160 -33 97 -23 155 -33 365 -63 82 -11
154 -23 158 -26 5 -3 29 -2 54 2 65 9 36 25 -47 25 -36 0 -81 4 -100 10 -19 5
-62 11 -95 14 -51 4 -301 45 -465 76 -25 5 -58 9 -75 8 -16 0 4 -6 45 -13z"/>
<path d="M10984 2947 c-28 -12 -61 -30 -75 -39 -13 -10 11 -2 54 16 73 31 102
47 81 45 -5 0 -32 -10 -60 -22z"/>
<path d="M9715 2860 c-8 -13 5 -13 25 0 13 8 13 10 -2 10 -9 0 -20 -4 -23 -10z"/>
<path d="M5590 2840 c8 -5 20 -10 25 -10 6 0 3 5 -5 10 -8 5 -19 10 -25 10 -5
0 -3 -5 5 -10z"/>
<path d="M9675 2840 c-3 -6 1 -7 9 -4 18 7 21 14 7 14 -6 0 -13 -4 -16 -10z"/>
<path d="M5256 2828 c-94 -9 -246 -49 -246 -65 0 -10 68 -98 94 -122 25 -23
28 -23 173 -18 149 5 265 27 335 63 41 21 38 57 -9 89 -68 46 -200 66 -347 53z"/>
<path d="M5711 2776 c2 -2 29 -6 59 -10 38 -4 50 -3 40 4 -13 9 -109 15 -99 6z"/>
<path d="M9549 2747 c-43 -33 -81 -68 -78 -71 2 -2 26 16 54 40 46 41 60 59
24 31z"/>
<path d="M9775 2721 c-44 -22 -75 -39 -70 -40 13 0 173 77 160 78 -5 0 -46
-17 -90 -38z"/>
<path d="M7426 2711 c-77 -81 -19 -260 100 -311 72 -31 126 -35 177 -12 54 24
67 45 67 107 0 61 -21 107 -67 151 -64 60 -117 86 -186 91 -59 5 -63 4 -91
-26z"/>
<path d="M13425 2670 c3 -5 8 -10 11 -10 2 0 4 5 4 10 0 6 -5 10 -11 10 -5 0
-7 -4 -4 -10z"/>
<path d="M9409 2613 c-29 -35 -41 -53 -36 -53 2 0 17 16 31 35 28 36 31 49 5
18z"/>
<path d="M5783 2555 c0 -33 2 -45 4 -27 2 18 2 45 0 60 -2 15 -4 0 -4 -33z"/>
<path d="M9820 2570 c-8 -5 -10 -10 -5 -10 6 0 17 5 25 10 8 5 11 10 5 10 -5
0 -17 -5 -25 -10z"/>
<path d="M10803 2490 c0 -25 2 -35 4 -22 2 12 2 32 0 45 -2 12 -4 2 -4 -23z"/>
<path d="M5727 2513 c-4 -3 -6 -22 -6 -42 l1 -36 8 40 c8 42 8 49 -3 38z"/>
<path d="M10020 2470 c-11 -8 -7 -9 15 -4 37 8 45 14 19 14 -10 0 -26 -5 -34
-10z"/>
<path d="M10782 2389 c-7 -23 -11 -43 -9 -46 7 -7 29 55 25 72 -1 9 -9 -3 -16
-26z"/>
<path d="M11792 2350 c-18 -4 -36 -11 -39 -14 -6 -6 28 -1 97 14 34 8 34 8 5
8 -16 0 -45 -4 -63 -8z"/>
<path d="M11580 2317 c-80 -11 -139 -22 -132 -25 20 -7 282 30 282 40 0 4 -1
7 -2 7 -2 -1 -68 -11 -148 -22z"/>
<path d="M10614 2308 c-9 -13 58 -78 81 -78 10 0 3 12 -20 31 -19 17 -35 37
-35 45 0 17 -16 18 -26 2z"/>
<path d="M10151 2296 c2 -2 24 -6 49 -9 30 -4 38 -3 25 3 -19 8 -83 14 -74 6z"/>
<path d="M11388 2283 c7 -3 16 -2 19 1 4 3 -2 6 -13 5 -11 0 -14 -3 -6 -6z"/>
<path d="M10278 2273 c6 -2 18 -2 25 0 6 3 1 5 -13 5 -14 0 -19 -2 -12 -5z"/>
<path d="M10410 2271 c8 -4 38 -5 65 -1 l50 7 -65 1 c-39 1 -59 -2 -50 -7z"/>
<path d="M11288 2273 c6 -2 18 -2 25 0 6 3 1 5 -13 5 -14 0 -19 -2 -12 -5z"/>
<path d="M11188 2263 c12 -2 32 -2 45 0 12 2 2 4 -23 4 -25 0 -35 -2 -22 -4z"/>
<path d="M11018 2253 c12 -2 30 -2 40 0 9 3 -1 5 -23 4 -22 0 -30 -2 -17 -4z"/>
<path d="M10840 2240 c-13 -9 -13 -10 0 -9 8 1 26 5 40 9 l25 8 -25 1 c-14 0
-32 -4 -40 -9z"/>
<path d="M10753 2223 c9 -2 25 -2 35 0 9 3 1 5 -18 5 -19 0 -27 -2 -17 -5z"/>
<path d="M12860 2160 c41 -4 93 -10 115 -14 l40 -5 -40 13 c-22 8 -74 14 -115
14 l-75 -1 75 -7z"/>
<path d="M12563 2153 c9 -2 23 -2 30 0 6 3 -1 5 -18 5 -16 0 -22 -2 -12 -5z"/>
<path d="M12340 2100 c-8 -5 -10 -10 -5 -10 6 0 17 5 25 10 8 5 11 10 5 10 -5
0 -17 -5 -25 -10z"/>
<path d="M12706 2063 c-10 -10 -16 -12 -12 -5 12 21 -99 14 -212 -13 -120 -29
-154 -44 -204 -93 -64 -61 -49 -121 41 -166 l47 -24 189 112 c283 167 272 159
267 176 -3 8 -10 18 -16 22 -21 14 -82 8 -100 -9z"/>
<path d="M12155 1969 c-4 -6 -5 -12 -2 -15 2 -3 7 2 10 11 7 17 1 20 -8 4z"/>
<path d="M12142 1870 c0 -19 2 -27 5 -17 2 9 2 25 0 35 -3 9 -5 1 -5 -18z"/>
<path d="M12152 1755 c-1 -16 3 -48 7 -70 11 -53 12 -5 2 55 -6 34 -9 37 -9
15z"/>
<path d="M10782 1563 c14 -4 23 -43 8 -41 -3 1 -12 -1 -20 -5 -8 -3 -62 -8
-120 -10 -121 -5 -206 -31 -257 -80 -60 -56 -118 -310 -133 -581 -11 -191 -6
-223 40 -256 43 -30 48 -24 11 14 l-32 33 4 159 c2 88 7 182 11 209 24 180 60
347 86 395 15 28 117 75 195 89 32 6 92 11 132 11 70 0 73 -1 73 -23 0 -45
-19 -54 -120 -60 -107 -6 -185 -29 -201 -59 -16 -29 -3 -78 31 -120 45 -54
108 -73 250 -73 125 0 210 15 280 48 36 18 46 28 48 51 5 40 -13 70 -57 94
-37 20 -117 45 -184 57 -36 6 -38 8 -32 33 9 37 25 54 44 46 9 -3 54 -20 101
-36 177 -63 240 -113 240 -193 0 -48 -15 -99 -28 -91 -4 2 -33 -4 -64 -14 -31
-10 -103 -26 -160 -36 -123 -20 -152 -30 -145 -48 4 -9 -6 -14 -31 -15 -21 -1
-43 -3 -50 -3 -7 -1 -12 -14 -11 -32 0 -17 -3 -79 -7 -138 -4 -60 -4 -108 -1
-108 3 0 79 44 169 97 89 53 214 126 276 161 61 36 112 71 112 78 0 7 -11 48
-25 91 -14 43 -25 85 -25 92 0 8 -12 32 -27 53 -29 43 -123 93 -232 125 -51
15 -61 22 -61 41 0 12 6 22 13 22 6 1 1 7 -13 15 -14 8 -43 14 -65 13 -22 0
-32 -2 -23 -5z"/>
<path d="M10660 1100 c0 -5 9 -10 20 -10 11 0 20 5 20 10 0 6 -9 10 -20 10
-11 0 -20 -4 -20 -10z"/>
<path d="M10391 1001 c-44 -44 -38 -147 10 -192 l29 -27 -35 -21 c-19 -11 -35
-27 -35 -36 0 -26 38 -17 62 15 28 38 40 38 36 0 -1 -16 2 -31 7 -32 6 -2 11
13 13 32 3 38 15 67 49 119 31 47 27 128 -8 147 -37 20 -106 17 -128 -5z m117
-27 c46 -51 12 -144 -53 -144 -38 0 -75 41 -75 85 0 88 71 121 128 59z"/>
<path d="M10422 968 c-7 -7 -12 -30 -12 -53 0 -46 13 -65 45 -65 49 0 74 79
37 113 -22 20 -53 22 -70 5z"/>
</g>
</svg>
