<svg xmlns="http://www.w3.org/2000/svg" version="1.1" xmlns:xlink="http://www.w3.org/1999/xlink" xmlns:svgjs="http://svgjs.dev/svgjs" width="1500" height="1500" viewBox="0 0 1500 1500"><rect width="1500" height="1500" fill="#000000"></rect><g transform="matrix(0.6666666666666666,0,0,0.6666666666666666,250,187.66666666666674)"><svg viewBox="0 0 320 360" data-background-color="#2f2354" preserveAspectRatio="xMidYMid meet" height="1687" width="1500" xmlns="http://www.w3.org/2000/svg" xmlns:xlink="http://www.w3.org/1999/xlink"><g id="tight-bounds" transform="matrix(1,0,0,1,0,0)"><svg viewBox="0 0 320 360" height="360" width="320"><g><svg></svg></g><g><svg viewBox="0 0 320 360" height="360" width="320"><g><path d="M320 187.111c0-45.764-20.238-86.866-52.203-114.908-28.043-31.964-69.145-52.203-114.908-52.203-84.302 0-152.889 68.587-152.889 152.889 0 45.753 20.231 86.848 52.185 114.891 28.043 31.975 69.152 52.22 114.926 52.22 0.299 0 0.59-0.021 0.889-0.021 0.299 0 0.59 0.021 0.889 0.021 83.456 0 151.111-67.655 151.111-151.111 0-0.299-0.021-0.59-0.021-0.889 0-0.299 0.021-0.59 0.021-0.889zM59.833 263.097c-15.093-21.255-24.071-47.143-24.256-75.097 0.48-72.928 59.492-131.943 132.423-132.423 27.954 0.185 53.845 9.163 75.097 24.256 24.366 23.627 39.57 56.64 39.57 93.056 0 71.559-58.219 129.778-129.778 129.778-36.416 0-69.429-15.204-93.056-39.57zM3.556 172.889c0-82.343 66.99-149.333 149.333-149.333 35.051 0 67.292 12.167 92.8 32.462-22.98-13.824-49.863-21.796-78.578-21.796-84.302 0-152.889 68.587-152.889 152.889 0 28.708 7.968 55.584 21.785 78.56-20.288-25.5-32.452-57.739-32.451-92.782zM167.111 318.667c-35.84 0-68.363-14.418-92.107-37.743 21.952 15.89 48.864 25.298 77.885 25.298 73.522 0 133.333-59.812 133.333-133.333 0-29.02-9.408-55.932-25.298-77.885 23.324 23.744 37.742 56.267 37.743 92.107 0 72.54-59.015 131.556-131.556 131.556z" fill="#ffffff" fill-rule="nonzero" stroke="none" stroke-width="1" stroke-linecap="butt" stroke-linejoin="miter" stroke-miterlimit="10" stroke-dasharray="" stroke-dashoffset="0" font-family="none" font-weight="none" font-size="none" text-anchor="none" style="mix-blend-mode: normal" data-fill-palette-color="tertiary"></path></g><g transform="matrix(1,0,0,1,113.76028421065088,116.729766)"><svg viewBox="0 0 92.47943157869824 126.540468" height="126.540468" width="92.47943157869824"><g><svg viewBox="0 0 92.47943157869824 126.540468" height="126.540468" width="92.47943157869824"><g><svg viewBox="0 0 92.47943157869824 126.540468" height="126.540468" width="92.47943157869824"><g><path d="M0 126.54v-126.54h92.479v126.54z" fill="#ffffff" stroke="transparent" stroke-width="0" rx="0%" data-fill-palette-color="tertiary"></path><path d="M2.955 123.586v-120.631h86.569v120.631z" fill="#000000" stroke="transparent" stroke-width="0" rx="0%" data-fill-palette-color="quaternary"></path><path d="M8.865 117.676v-108.811h74.75v108.811z" fill="#ffffff" stroke="transparent" stroke-width="0" data-fill-palette-color="tertiary"></path></g><g transform="matrix(1,0,0,1,17.729766,17.729765999999998)" id="textblocktransform"><svg viewBox="0 0 57.01989957869824 91.08093600000001" height="91.08093600000001" width="57.01989957869824" id="textblock"><g><svg viewBox="0 0 57.01989957869824 91.08093600000001" height="91.08093600000001" width="57.01989957869824"><g transform="matrix(1,0,0,1,0,0)"><svg width="57.01989957869824" viewBox="6.96 -30.88 21.16 33.8" height="91.08093600000001" data-palette-color="#2f2354"><path d="M6.96-24.72Q7.64-24.72 8.04-26.06 8.44-27.4 8.44-28.76 8.44-30.12 9.52-30.12 10.6-30.12 10.6-28.68L10.6-28.68Q10.6-26.48 9.08-24.96L9.08-24.96Q8.32-24.28 7.84-24.24L7.84-24.24Q7.04-24.24 6.96-24.6L6.96-24.6 6.96-24.72ZM22.92-12.44L22.92-12.44Q24.24-14.56 24.24-16.42 24.24-18.28 23.08-18.28L23.08-18.28Q21.68-18.28 19.9-15.82 18.12-13.36 16.74-10.24 15.36-7.12 14.4-4.46 13.44-1.8 13.44-1.24L13.44-1.24Q13.4-0.76 12.88-0.76L12.88-0.76Q11.68-0.76 11.68-3.96L11.68-3.96Q11.68-10.32 12.96-16.74 14.24-23.16 16-27.02 17.76-30.88 19.28-30.88L19.28-30.88Q19.92-30.88 19.92-30.24L19.92-30.24Q17.8-25.56 16.24-18.84L16.24-18.84Q14.96-13.64 14.08-7.68L14.08-7.68 14.4-7.68Q18.96-19.4 23.52-19.4L23.52-19.4Q26.36-19.4 26.36-16.16L26.36-16.16Q26.36-14.08 24.82-11.76 23.28-9.44 20.92-8.68L20.92-8.68Q21.4-8.24 22.88-3.2L22.88-3.2Q23.4-1.4 24.32 0.08 25.24 1.56 26.3 1.56 27.36 1.56 27.88 0.8L27.88 0.8Q28.12 0.8 28.12 1 28.12 1.2 27.92 1.6L27.92 1.6Q27.04 2.8 25.76 2.92L25.76 2.92Q24.12 2.92 22.68 1.24 21.24-0.44 20.44-2.44 19.64-4.44 18.94-6.42 18.24-8.4 18.08-8.64L18.08-8.64Q17.8-8.84 17.72-9.12L17.72-9.12Q20.88-9.12 22.92-12.44Z" opacity="1" transform="matrix(1,0,0,1,0,0)" fill="#000000" class="wordmark-text-0" data-fill-palette-color="quaternary" id="text-0"></path></svg></g></svg></g></svg></g></svg></g><g></g></svg></g></svg></g></svg></g><defs></defs></svg><rect width="320" height="360" fill="none" stroke="none" visibility="hidden"></rect></g></svg></g></svg>